<svg width="14" height="15" viewBox="0 0 14 15" fill="none" xmlns="http://www.w3.org/2000/svg">
<path d="M12.2497 4.31981C12.2454 4.26283 12.1977 4.21875 12.1406 4.21875H10.1719V3.67188C10.1719 1.92286 8.74891 0.5 7 0.5C5.25109 0.5 3.82813 1.92286 3.82813 3.67188V4.21875H1.85938C1.80228 4.21875 1.75459 4.26283 1.75033 4.31981L0.984704 14.3823C0.982407 14.4126 0.992798 14.4426 1.01358 14.4649C1.03425 14.4873 1.06334 14.5 1.09375 14.5H12.9063C12.9367 14.5 12.9658 14.4873 12.9864 14.465C13.0071 14.4427 13.0176 14.4127 13.0153 14.3824L12.2497 4.31981ZM4.70313 3.67188C4.70313 2.40542 5.73344 1.375 7 1.375C8.26656 1.375 9.29688 2.40542 9.29688 3.67188V4.21875H4.70313V3.67188ZM4.26563 7.28125C3.66242 7.28125 3.17188 6.79059 3.17188 6.1875C3.17188 5.75098 3.39063 5.35767 3.82813 5.18508V6.1875C3.82813 6.42878 4.02445 6.625 4.26563 6.625C4.5068 6.625 4.70313 6.42878 4.70313 6.1875V5.18573C5.14063 5.35833 5.35938 5.75459 5.35938 6.1875C5.35938 6.79059 4.86883 7.28125 4.26563 7.28125ZM9.73438 7.28125C9.13117 7.28125 8.64063 6.79059 8.64063 6.1875C8.64063 5.75098 8.85938 5.35767 9.29688 5.18508V6.1875C9.29688 6.42878 9.4932 6.625 9.73438 6.625C9.97555 6.625 10.1719 6.42878 10.1719 6.1875V5.18573C10.6094 5.35833 10.8281 5.75459 10.8281 6.1875C10.8281 6.79059 10.3376 7.28125 9.73438 7.28125Z" fill="white"/>
</svg>
